<svg t="1688991280639" class="icon" viewBox="0 0 1152 1024" version="1.1" xmlns="http://www.w3.org/2000/svg" p-id="1464"
     width="200" height="200">
    <path d="M576 0C256 0 0 70.4 0 153.6v128c0 89.6 256 153.6 576 153.6s576-70.4 576-153.6v-128C1152 70.4 896 0 576 0z m0 531.2c-320 0-576-76.8-576-166.4v198.4c0 89.6 256 166.4 576 166.4s576-76.8 576-166.4V364.8c0 89.6-256 166.4-576 166.4z m0 294.4c-320 0-576-76.8-576-166.4v198.4C0 947.2 256 1024 576 1024s576-76.8 576-166.4V659.2c0 89.6-256 166.4-576 166.4z"
          p-id="1465"></path>
</svg>