<svg t="1724826546230" class="icon" viewBox="0 0 1024 1024" version="1.1" xmlns="http://www.w3.org/2000/svg" p-id="5234"
     width="200" height="200">
    <path d="M948 410H76c-6.6 0-12-5.4-12-12v-65c0-6.6 5.4-12 12-12h872c6.6 0 12 5.4 12 12v65c0 6.6-5.4 12-12 12zM960 882.5v65c0 6.6-5.4 12-12 12H76c-6.6 0-12-5.4-12-12v-65c0-6.6 5.4-12 12-12h872c6.6 0 12 5.4 12 12zM887.3 321H136.7v-77c0-6.6 5.4-12 12-12h726.7c6.6 0 12 5.4 12 12v77zM164.5 410v460.5h276.9v-139c0-38.8 31.8-70.6 70.6-70.6 19.4 0 37.1 7.9 49.8 20.7 12.8 12.8 20.7 30.5 20.7 49.9v139h277.3V410H164.5z m209.2 389.8H256V682.1h117.7v117.7z m0.1-201.9H256V480.2h117.7v117.7z m197.2 0H453.2V480.2H571v117.7z m197 201.9H650.3V682.1H768v117.7z m0.2-201.9H650.4V480.2h117.7v117.7z"
          fill="#0C2B4A" p-id="5235"></path>
    <path d="M512.2 85.2H640v95.6H512.2z" fill="#0C2B4A" p-id="5236"></path>
</svg>
