<?xml version="1.0" standalone="no"?><!DOCTYPE svg PUBLIC "-//W3C//DTD SVG 1.1//EN"
  "http://www.w3.org/Graphics/SVG/1.1/DTD/svg11.dtd">
<svg t="1632532907324" class="icon" viewBox="0 0 1024 1024" version="1.1" xmlns="http://www.w3.org/2000/svg"
     p-id="11464" xmlns:xlink="http://www.w3.org/1999/xlink" width="200" height="200">
  <defs>
    <style type="text/css"></style>
  </defs>
  <path
    d="M832 738.56V320a128 128 0 0 0-128-128H128a128 128 0 0 0-128 128v576a128 128 0 0 0 128 128h576a128 128 0 0 0 128-128v-157.44z m-92.8 128a64 64 0 0 1-64 64H156.16a64 64 0 0 1-64-64V349.44a64 64 0 0 1 64-64h517.76a64 64 0 0 1 64 64v390.4z"
    p-id="11465"></path>
  <path
    d="M1024 704a128 128 0 0 1-128 128h-64v-93.44h36.48a64 64 0 0 0 64-64V156.8a64 64 0 0 0-64-64H349.44a64 64 0 0 0-64 64V192H192V128a128 128 0 0 1 128-128h576a128 128 0 0 1 128 128z"
    p-id="11466"></path>
  <path d="M189.44 560m48 0l288 0q48 0 48 48l0 0q0 48-48 48l-288 0q-48 0-48-48l0 0q0-48 48-48Z" p-id="11467"></path>
  <path
    d="M476.431222 427.126384m33.941126 33.941125l113.137084 113.137085q33.941125 33.941125 0 67.882251l0 0q-33.941125 33.941125-67.882251 0l-113.137084-113.137085q-33.941125-33.941125 0-67.882251l0 0q33.941125-33.941125 67.882251 0Z"
    p-id="11468"></path>
  <path
    d="M407.746697 720.206504m33.941125-33.941126l113.137085-113.137085q33.941125-33.941125 67.882251 0l0 0q33.941125 33.941125 0 67.882251l-113.137085 113.137085q-33.941125 33.941125-67.882251 0l0 0q-33.941125-33.941125 0-67.882251Z"
    p-id="11469"></path>
</svg>
