<svg t="1726540550289" class="icon" viewBox="0 0 1024 1024" version="1.1" xmlns="http://www.w3.org/2000/svg" p-id="4276" width="200" height="200"><path d="M728.539 428.382c-8.308 0-17.338-2.528-23.84-6.862-41.898-29.258-80.547-67.906-117.75-117.751l-0.361-0.723-0.362-0.722c-2.528-5.057-5.418-10.836-5.418-19.866 0-2.529 0.723-5.057 1.445-7.585 0.361-0.723 0.361-1.445 0.723-1.806v-1.445l0.722-1.806c17.338-44.789 46.956-74.046 88.133-87.772 2.89-1.083 5.779-1.444 9.39-1.444 8.308 0 17.338 2.528 23.84 6.862 41.9 29.258 80.186 67.545 117.39 117.029 3.25 3.25 10.475 11.197 6.863 23.84-0.362 1.805-0.723 3.972-1.445 5.778-0.361 0.723-0.361 1.445-0.723 1.806v1.445l-0.722 1.806c-17.338 44.789-46.956 74.046-88.133 87.772-3.25 1.083-6.14 1.444-9.752 1.444z m-98.246-149.536c24.923 35.036 57.43 67.544 99.33 98.968 26.006-10.474 42.26-27.45 49.845-51.651-24.923-35.398-57.43-67.906-99.69-99.33-23.118 9.753-39.372 26.729-49.485 52.013z m0 0M938.035 691.697H731.79c-19.144 0-34.675 15.531-34.675 34.675 0 19.143 15.531 34.675 34.675 34.675h206.245c19.143 0 34.675-15.532 34.675-34.675 0-18.783-15.532-34.675-34.675-34.675zM638.24 691.697h-0.362c-19.144 0-34.675 15.531-34.675 34.675 0 19.143 15.531 34.675 34.675 34.675h0.361c19.144 0 34.675-15.532 34.675-34.675 0-18.783-15.892-34.675-34.675-34.675zM938.035 539.27H731.79c-19.144 0-34.675 15.532-34.675 34.676 0 19.143 15.531 34.675 34.675 34.675h206.245c19.143 0 34.675-15.532 34.675-34.675 0-19.144-15.532-34.675-34.675-34.675zM638.24 539.27h-0.362c-19.144 0-34.675 15.532-34.675 34.676 0 19.143 15.531 34.675 34.675 34.675h0.361c19.144 0 34.675-15.532 34.675-34.675 0-19.144-15.892-34.675-34.675-34.675zM638.24 844.484h-0.362c-19.144 0-34.675 15.532-34.675 34.675 0 19.144 15.531 34.675 34.675 34.675h0.361c19.144 0 34.675-15.531 34.675-34.675 0-19.143-15.892-34.675-34.675-34.675zM938.035 844.484H731.79c-19.144 0-34.675 15.532-34.675 34.675 0 19.144 15.531 34.675 34.675 34.675h206.245c19.143 0 34.675-15.531 34.675-34.675 0-19.143-15.532-34.675-34.675-34.675z" p-id="4277"></path><path d="M681.944 52.374c-157.844 0-286.43 128.948-286.43 286.43 0 37.927 6.5 71.157 19.865 104.388L66.822 791.749c-11.197 11.197-15.532 19.866-15.532 35.397v86.688c0 31.063 26.729 57.792 57.792 57.792h86.688c15.532 0 24.562-6.501 35.398-15.531l41.899-42.26h66.46c31.063 0 57.792-26.73 57.792-57.793V798.25h57.792c31.063 0 57.792-26.728 57.792-57.791v-66.461l32.147-32.147v-84.52l-20.95 20.95-55.625 55.624c-11.197 11.197-17.698 24.561-17.698 40.093v66.46h-57.792c-31.063 0-57.792 26.73-57.792 57.792v57.792h-66.46c-15.532 0-28.897 6.502-40.094 17.7l-39.732 40.092h-82.353v-81.992l335.193-335.193 42.26-42.26c-19.866-33.23-33.23-73.324-33.23-115.584 0-126.42 102.22-228.64 228.639-228.64 126.42 0 228.639 102.22 228.639 228.64 0.722 43.344-10.475 83.798-30.34 118.473h68.988c16.616-36.12 25.645-76.213 25.645-118.473-3.973-157.844-132.92-286.431-290.404-286.431z" p-id="4278"></path></svg>
