<svg t="1724835509974" class="icon" viewBox="0 0 1308 1024" version="1.1" xmlns="http://www.w3.org/2000/svg" p-id="4286" width="200" height="200"><path d="M818.178404 0c21.183099 0 38.460094 17.276995 38.460094 38.460094V75.71831h146.629108c42.516432 0 76.920188 34.403756 76.920187 76.920188v263.211267c0 21.183099-17.276995 38.460094-38.460093 38.460094-21.032864 0-38.159624-16.826291-38.460094-37.859155v-43.868544H207.624413c-4.206573 0-8.262911-0.600939-12.018779-1.953052v513.953052H498.478873c21.183099 0 38.460094 17.276995 38.460094 38.460094 0 21.183099-17.276995 38.460094-38.460094 38.460093H195.605634c-42.516432 0-76.920188-34.403756-76.920188-76.920187V152.638498c0-42.516432 34.403756-76.920188 76.920188-76.920188h153.840375v-37.258216c0-21.183099 17.276995-38.460094 38.460094-38.460094 21.183099 0 38.460094 17.276995 38.460094 38.460094V75.71831H779.71831v-37.258216c0-21.333333 17.276995-38.460094 38.460094-38.460094zM498.478873 677.859155c21.183099 0 38.460094 17.276995 38.460094 38.460094 0 21.032864-16.826291 38.159624-37.859155 38.460094H359.061033c-21.183099 0-38.460094-17.276995-38.460094-38.460094 0-21.183099 17.276995-38.460094 38.460094-38.460094h139.41784zM359.061033 574.497653c-21.183099 0-38.460094-17.276995-38.460094-38.460094 0-21.183099 17.276995-38.460094 38.460094-38.460094h180.28169c21.183099 0 38.460094 17.276995 38.460094 38.460094 0 21.032864-16.826291 38.159624-37.859155 38.460094H359.061033z m-9.615024-421.859155H195.605634v144.976525c3.906103-1.201878 7.962441-1.953052 12.018779-1.953051h795.643193V152.638498h-146.629108v37.258216c0 21.183099-17.276995 38.460094-38.460094 38.460094-21.183099 0-38.460094-17.276995-38.460094-38.460094V152.638498H426.366197v37.258216c0 21.183099-17.276995 38.460094-38.460094 38.460094-21.183099 0-38.460094-17.276995-38.460094-38.460094V152.638498z m0 0" fill="#333333" p-id="4287"></path><path d="M875.868545 490.366197c147.380282 0 266.816901 119.43662 266.816901 266.816902S1023.248826 1024 875.868545 1024s-266.816901-119.43662-266.816902-266.816901S728.488263 490.366197 875.868545 490.366197z m0 72.112676c-107.568075 0-194.704225 87.13615-194.704226 194.704226s87.13615 194.704225 194.704226 194.704225 194.704225-87.13615 194.704225-194.704225-87.13615-194.704225-194.704225-194.704226z m-3.906104 44.619719c19.680751 0 35.755869 15.774648 36.056338 35.455399v89.69014h35.004695c19.530516 0 35.455399 15.474178 36.056338 34.854461v1.201877c0 19.680751-15.774648 35.755869-35.455399 36.056339h-71.511737c-9.615023 0-18.779343-3.755869-25.539906-10.666667-6.610329-6.610329-10.516432-15.624413-10.666667-24.938967V643.15493c0-19.981221 16.075117-36.056338 36.056338-36.056338z m0 0" fill="#333333" p-id="4288"></path></svg>
