<svg t="1725710227330" class="icon" viewBox="0 0 1024 1024" version="1.1" xmlns="http://www.w3.org/2000/svg" p-id="5321" width="200" height="200"><path d="M523.52 965.12a448 448 0 1 1 448-448 448 448 0 0 1-448 448z m0-832a384 384 0 1 0 384 384 384 384 0 0 0-384-384z" p-id="5322"></path><path d="M523.52 614.4a32 32 0 0 1-22.72-9.28 32 32 0 0 1 0-45.44l84.16-83.84a87.36 87.36 0 0 0 25.28-59.84 86.08 86.08 0 0 0-25.28-64 91.84 91.84 0 0 0-20.16-15.04l-5.12-2.56-7.68-2.88H544a85.12 85.12 0 0 0-81.92 22.72A32 32 0 0 1 416 352a32 32 0 0 1 0-45.12 148.16 148.16 0 0 1 140.48-40.32l6.72 1.6h4.48l5.76 3.2 10.88 4.48 10.24 4.8a158.08 158.08 0 0 1 34.88 26.24 150.72 150.72 0 0 1 0 213.12l-83.84 84.16a32 32 0 0 1-22.08 10.24z" p-id="5323"></path><path d="M523.52 614.4a32 32 0 0 1-22.72-9.28 32 32 0 0 1 0-45.44l84.16-83.84a87.36 87.36 0 0 0 25.28-59.84 86.08 86.08 0 0 0-25.28-64 49.28 49.28 0 0 0-6.08-5.44l-5.44-4.16a64 64 0 0 0-8-5.12 32 32 0 1 1 30.08-56.64c4.8 2.88 9.6 5.76 14.4 9.28l8.96 6.72a102.08 102.08 0 0 1 11.2 10.24 150.72 150.72 0 0 1 0 213.12l-83.84 84.16a32 32 0 0 1-22.72 10.24z" p-id="5324"></path><path d="M439.36 362.24A32 32 0 0 1 416 352a32 32 0 0 1 0-45.12 142.08 142.08 0 0 1 50.24-32 92.8 92.8 0 0 1 13.76-5.44 155.2 155.2 0 0 1 43.52-6.08 38.4 38.4 0 0 0 10.56 0 80.64 80.64 0 0 1 15.68 2.24h7.04l9.28 2.24 6.72 2.24a72.96 72.96 0 0 1 11.52 4.8 32 32 0 1 1-28.48 57.28l-4.8-1.92H521.6a76.8 76.8 0 0 0-24 3.84 25.92 25.92 0 0 0-7.04 2.24 87.36 87.36 0 0 0-29.76 19.52 32 32 0 0 1-21.44 6.4z" p-id="5325"></path><path d="M608 530.24a32 32 0 0 1-22.4-9.28 32 32 0 0 1 0-45.12 87.36 87.36 0 0 0 24.64-59.84 86.08 86.08 0 0 0-25.28-64 88.64 88.64 0 0 0-122.88 0A32 32 0 0 1 416 307.52a151.04 151.04 0 0 1 213.44 213.44 32 32 0 0 1-21.44 9.28z" p-id="5326"></path><path d="M608 530.24a32 32 0 0 1-22.4-9.28 32 32 0 0 1 0-45.12 87.36 87.36 0 0 0 24.64-59.84 86.08 86.08 0 0 0-25.28-64 49.28 49.28 0 0 0-6.08-5.44l-2.88-2.56a76.8 76.8 0 0 0-8.96-5.76 32 32 0 1 1 30.08-56.64c4.8 2.88 9.6 5.76 14.4 9.28a55.68 55.68 0 0 1 9.92 7.68 75.52 75.52 0 0 1 10.24 9.28 150.72 150.72 0 0 1 0 213.12 32 32 0 0 1-23.68 9.28z" p-id="5327"></path><path d="M411.84 487.04a32 32 0 0 1-30.08-21.12A150.4 150.4 0 0 1 416 307.84a142.08 142.08 0 0 1 50.24-32 92.8 92.8 0 0 1 13.76-6.4 155.2 155.2 0 0 1 43.52-6.08h10.56a86.4 86.4 0 0 1 13.12 1.6 44.8 44.8 0 0 1 8.96 1.92l10.56 2.88 5.44 1.6a88.64 88.64 0 0 1 13.76 5.76 32 32 0 0 1-32 56l-26.88-6.08h-6.08a76.8 76.8 0 0 0-24 3.84 25.92 25.92 0 0 0-7.04 2.24 87.04 87.04 0 0 0-49.92 110.72 32 32 0 0 1-19.2 40.96 32 32 0 0 1-8.96 2.24z m136.32-156.16h1.92zM523.52 681.6a32 32 0 0 1-32-32v-67.2a32 32 0 0 1 64 0v67.2a32 32 0 0 1-32 32z" p-id="5328"></path><path d="M523.52 741.12m-29.44 0a29.44 29.44 0 1 0 58.88 0 29.44 29.44 0 1 0-58.88 0Z" p-id="5329"></path></svg>
